Coordinates
version=1
nRows=20
nColumns=30
inDegrees=yes

Units are S.I. units (second, meters, Newtons, ...)
Angles are in degrees.

endheader
time	floatyaw	floatroll	floatpitch	floatx	floaty	floatz	pro_sup_l	deviation_l	flexion_l	cmc_flexion_l	cmc_abduction_l	mp_flexion_l	ip_flexion_l	2mcp_flexion_l	2mcp_abduction_l	2pm_flexion_l	2md_flexion_l	3mcp_flexion_l	3mcp_abduction_l	3pm_flexion_l	3md_flexion_l	4mcp_flexion_l	4mcp_abduction_l	4pm_flexion_l	4md_flexion_l	5mcp_flexion_l	5mcp_abduction_l	5pm_flexion_l	5md_flexion_l
6.500000	3.286137	-2.351481	98.024303	0.054024	-0.099143	0.034502	86.135630	23.422426	-6.097167	4.106942	42.372041	-27.266267	-55.237219	58.537786	5.119188	49.245620	43.656550	59.301583	5.617285	48.371655	48.722374	58.328347	-6.145229	57.436537	60.229519	52.360860	-4.318983	63.297999	50.310590
6.533333	3.286137	-2.351481	98.024303	0.054024	-0.099143	0.034502	86.135630	23.422426	-6.097167	4.106942	42.372041	-27.266267	-55.237219	58.537786	5.119188	49.245620	43.656550	59.301583	5.617285	48.371655	48.722374	58.328347	-6.145229	57.436537	60.229519	52.360860	-4.318983	63.297999	50.310590
6.566667	3.286137	-2.351481	98.024303	0.054024	-0.099143	0.034502	86.135630	23.422426	-6.097167	4.106942	42.372041	-27.266267	-55.237219	58.537786	5.119188	49.245620	43.656550	59.301583	5.617285	48.371655	48.722374	58.328347	-6.145229	57.436537	60.229519	52.360860	-4.318983	63.297999	50.310590
6.600000	3.286137	-2.351481	98.024303	0.054024	-0.099143	0.034502	86.135630	23.422426	-6.097167	4.106942	42.372041	-27.266267	-55.237219	58.537786	5.119188	49.245620	43.656550	59.301583	5.617285	48.371655	48.722374	58.328347	-6.145229	57.436537	60.229519	52.360860	-4.318983	63.297999	50.310590
6.633333	3.286137	-2.351481	98.024303	0.054024	-0.099143	0.034502	86.135630	23.422426	-6.097167	4.106942	42.372041	-27.266267	-55.237219	58.537786	5.119188	49.245620	43.656550	59.301583	5.617285	48.371655	48.722374	58.328347	-6.145229	57.436537	60.229519	52.360860	-4.318983	63.297999	50.310590
6.666667	3.286137	-2.351481	98.024303	0.054024	-0.099143	0.034502	86.135630	23.422426	-6.097167	4.106942	42.372041	-27.266267	-55.237219	58.537786	5.119188	49.245620	43.656550	59.301583	5.617285	48.371655	48.722374	58.328347	-6.145229	57.436537	60.229519	52.360860	-4.318983	63.297999	50.310590
6.700000	3.286137	-2.351481	98.024303	0.054024	-0.099143	0.034502	86.135630	23.422426	-6.097167	4.106942	42.372041	-27.266267	-55.237219	58.537786	5.119188	49.245620	43.656550	59.301583	5.617285	48.371655	48.722374	58.328347	-6.145229	57.436537	60.229519	52.360860	-4.318983	63.297999	50.310590
6.733333	3.286137	-2.351481	98.024303	0.054024	-0.099143	0.034502	86.135630	23.422426	-6.097167	4.106942	42.372041	-27.266267	-55.237219	58.537786	5.119188	49.245620	43.656550	59.301583	5.617285	48.371655	48.722374	58.328347	-6.145229	57.436537	60.229519	52.360860	-4.318983	63.297999	50.310590
6.766667	3.286137	-2.351481	98.024303	0.054024	-0.099143	0.034502	86.135630	23.422426	-6.097167	4.106942	42.372041	-27.266267	-55.237219	58.537786	5.119188	49.245620	43.656550	59.301583	5.617285	48.371655	48.722374	58.328347	-6.145229	57.436537	60.229519	52.360860	-4.318983	63.297999	50.310590
6.800000	3.286137	-2.351481	98.024303	0.054024	-0.099143	0.034502	86.135630	23.422426	-6.097167	4.106942	42.372041	-27.266267	-55.237219	58.537786	5.119188	49.245620	43.656550	59.301583	5.617285	48.371655	48.722374	58.328347	-6.145229	57.436537	60.229519	52.360860	-4.318983	63.297999	50.310590
6.833333	3.286137	-2.351481	98.024303	0.054024	-0.099143	0.034502	86.135630	23.422426	-6.097167	4.106942	42.372041	-27.266267	-55.237219	58.537786	5.119188	49.245620	43.656550	59.301583	5.617285	48.371655	48.722374	58.328347	-6.145229	57.436537	60.229519	52.360860	-4.318983	63.297999	50.310590
6.866667	3.286137	-2.351481	98.024303	0.054024	-0.099143	0.034502	86.135630	23.422426	-6.097167	4.106942	42.372041	-27.266267	-55.237219	58.537786	5.119188	49.245620	43.656550	59.301583	5.617285	48.371655	48.722374	58.328347	-6.145229	57.436537	60.229519	52.360860	-4.318983	63.297999	50.310590
6.900000	3.286137	-2.351481	98.024303	0.054024	-0.099143	0.034502	86.135630	23.422426	-6.097167	4.106942	42.372041	-27.266267	-55.237219	58.537786	5.119188	49.245620	43.656550	59.301583	5.617285	48.371655	48.722374	58.328347	-6.145229	57.436537	60.229519	52.360860	-4.318983	63.297999	50.310590
6.933333	3.286137	-2.351481	98.024303	0.054024	-0.099143	0.034502	86.135630	23.422426	-6.097167	4.106942	42.372041	-27.266267	-55.237219	58.537786	5.119188	49.245620	43.656550	59.301583	5.617285	48.371655	48.722374	58.328347	-6.145229	57.436537	60.229519	52.360860	-4.318983	63.297999	50.310590
6.966667	3.286137	-2.351481	98.024303	0.054024	-0.099143	0.034502	86.135630	23.422426	-6.097167	4.106942	42.372041	-27.266267	-55.237219	58.537786	5.119188	49.245620	43.656550	59.301583	5.617285	48.371655	48.722374	58.328347	-6.145229	57.436537	60.229519	52.360860	-4.318983	63.297999	50.310590
7.000000	3.029614	-4.103828	101.268469	0.062164	-0.145308	0.047493	101.453344	22.048340	-13.570639	6.083100	2.173721	-27.142257	-41.780350	62.715439	7.675296	55.655116	39.806977	63.881768	5.103476	66.626381	46.125548	72.792483	-5.500548	81.594506	48.395644	79.081073	-6.951268	75.932723	33.927314
7.033333	3.029614	-4.103828	101.268469	0.062164	-0.145308	0.047493	101.453344	22.048340	-13.570639	6.083100	2.173721	-27.142257	-41.780350	62.715439	7.675296	55.655116	39.806977	63.881768	5.103476	66.626381	46.125548	72.792483	-5.500548	81.594506	48.395644	79.081073	-6.951268	75.932723	33.927314
7.066667	3.029614	-4.103828	101.268469	0.062164	-0.145308	0.047493	101.453344	22.048340	-13.570639	6.083100	2.173721	-27.142257	-41.780350	62.715439	7.675296	55.655116	39.806977	63.881768	5.103476	66.626381	46.125548	72.792483	-5.500548	81.594506	48.395644	79.081073	-6.951268	75.932723	33.927314
7.100000	3.029614	-4.103828	101.268469	0.062164	-0.145308	0.047493	101.453344	22.048340	-13.570639	6.083100	2.173721	-27.142257	-41.780350	62.715439	7.675296	55.655116	39.806977	63.881768	5.103476	66.626381	46.125548	72.792483	-5.500548	81.594506	48.395644	79.081073	-6.951268	75.932723	33.927314
7.133333	3.029614	-4.103828	101.268469	0.062164	-0.145308	0.047493	101.453344	22.048340	-13.570639	6.083100	2.173721	-27.142257	-41.780350	62.715439	7.675296	55.655116	39.806977	63.881768	5.103476	66.626381	46.125548	72.792483	-5.500548	81.594506	48.395644	79.081073	-6.951268	75.932723	33.927314
